<?xml version="1.0" encoding="UTF-8" standalone="no"?>
<!-- Created with Inkscape (http://www.inkscape.org/) -->

<svg
   width="1024mm"
   height="1024mm"
   viewBox="0 0 1024 1024"
   version="1.1"
   id="svg1"
   inkscape:version="1.4.2 (2aeb623e1d, 2025-05-12)"
   sodipodi:docname="ic_logo_white.svg"
   inkscape:export-filename="../2ea69059/ic_logo_playstore_main.png"
   inkscape:export-xdpi="25.4"
   inkscape:export-ydpi="25.4"
   xmlns:inkscape="http://www.inkscape.org/namespaces/inkscape"
   xmlns:sodipodi="http://sodipodi.sourceforge.net/DTD/sodipodi-0.dtd"
   xmlns="http://www.w3.org/2000/svg"
   xmlns:svg="http://www.w3.org/2000/svg">
  <sodipodi:namedview
     id="namedview1"
     pagecolor="#ffffff"
     bordercolor="#000000"
     borderopacity="0.25"
     inkscape:showpageshadow="2"
     inkscape:pageopacity="0.0"
     inkscape:pagecheckerboard="0"
     inkscape:deskcolor="#d1d1d1"
     inkscape:document-units="mm"
     showguides="true"
     inkscape:zoom="0.065984978"
     inkscape:cx="-3735.6988"
     inkscape:cy="765.32571"
     inkscape:window-width="1846"
     inkscape:window-height="1016"
     inkscape:window-x="0"
     inkscape:window-y="0"
     inkscape:window-maximized="1"
     inkscape:current-layer="layer1" />
  <defs
     id="defs1" />
  <g
     inkscape:label="Layer 1"
     inkscape:groupmode="layer"
     id="layer1"
     transform="translate(-37.142722,-40.332459)">
    <path
       id="path1-9-7-7"
       style="fill:#ffffff;fill-opacity:1;stroke-width:24.3264"
       d="m 603.49814,259.97884 c -40.84448,-11.63623 -86.64524,-9.86893 -132.36518,2.48658 -45.71994,12.35549 -96.36724,42.60029 -132.44251,73.97001 -36.07524,31.3697 -66.27562,73.18626 -79.28074,109.56932 -13.00512,36.38305 -13.61544,63.51255 -3.2238,96.26698 0,0 5.78295,-52.05317 28.41848,-88.26467 22.63552,-36.2115 69.57215,-90.6879 118.03864,-118.2502 48.75167,-27.72447 107.84236,-50.88376 163.21709,-41.39569 55.37474,9.48806 93.26808,23.02142 140.15922,93.49002 l 38.62085,-5.53102 C 690.7962,293.3204 644.3426,271.61504 603.49814,259.97884 Z M 380.5921,385.61244 c 0,0 69.6544,41.67609 85.49346,68.38559 13.62364,22.97374 29.83921,55.48875 6.65829,78.88449 -24.83459,25.06457 -73.39595,31.2471 -112.50121,35.58016 -26.5776,2.94494 -60.37206,-4.22057 -79.92921,-6.85297 52.50588,36.60477 133.05126,37.2749 197.73039,13.90801 74.63647,-24.81966 166.9102,-94.87684 186.1802,-105.55091 13.891,-7.69452 84.54874,-46.2378 117.4536,-23.68655 33.47317,22.94074 27.11469,76.71145 20.05818,119.72919 -7.05651,43.01772 -35.16728,93.73185 -77.10907,123.18217 -92.37557,51.77878 -209.62297,32.0922 -310.98974,22.95914 17.25643,21.11366 51.19032,58.99335 79.65254,85.60941 21.14361,19.77215 55.92948,54.7457 67.38396,54.74998 11.45451,0.004 32.80387,-20.32485 46.5593,-32.46296 15.22843,-14.16348 28.35905,-31.68521 39.321,-48.48075 -47.45607,17.2538 -54.37958,32.96673 -90.33615,26.94398 -19.99689,-3.34933 -44.39789,-41.50903 -44.39789,-41.50903 39.01173,11.89471 172.52627,8.16413 240.41334,-35.89232 45.96993,-29.83292 75.79112,-86.81872 88.05303,-138.48835 12.26189,-51.66963 16.23026,-113.17921 -15.55442,-153.86973 -16.62925,-21.28866 -42.5077,-27.50308 -76.35916,-27.67019 -33.85144,-0.16712 -85.71674,22.51655 -114.91274,40.3603 -38.77994,23.70117 -86.90008,55.30178 -116.32309,71.13066 0,0 17.08734,-22.31488 -15.62186,-69.76267 -24.53206,-35.58607 -60.88955,-47.57498 -84.8581,-52.12841 -11.55514,-2.19519 -24.77206,-3.11015 -36.06465,-5.06824 z m -52.32939,64.34219 c -29.25939,-0.51868 -38.4448,40.28233 -7.84603,46.12183 26.8669,7.67525 45.36778,-29.2107 21.65503,-42.09989 -4.16305,-2.21434 -8.80699,-4.28542 -13.809,-4.02194 z m 398.4176,17.22534 c 0,0 6.92547,10.50656 11.58045,31.77235 3.91017,17.86333 2.01772,46.67519 0.32014,60.65283 -4.45405,36.65647 -37.61826,112.54136 -41.86834,117.93515 24.63834,-16.20555 64.28826,-72.05683 75.10593,-111.28267 6.91262,-25.06544 4.30448,-62.30177 -0.17117,-79.11827 -4.47202,-16.81647 -8.66597,-22.81348 -8.66597,-22.81348 z"
       sodipodi:nodetypes="szzcczazccscssaccsazscazscscazasscssccccccsscszcc" />
  </g>
</svg>
