<?xml version="1.0" encoding="UTF-8" standalone="no"?>
<!-- Created with Inkscape (http://www.inkscape.org/) -->

<svg
   width="512"
   height="512"
   viewBox="0 0 135.46667 135.46666"
   version="1.1"
   id="svg1"
   inkscape:version="1.4.2 (2aeb623e1d, 2025-05-12)"
   sodipodi:docname="ic_logo_white.svg"
   inkscape:export-filename="../2ea69059/ic_logo_playstore_main.png"
   inkscape:export-xdpi="25.4"
   inkscape:export-ydpi="25.4"
   xmlns:inkscape="http://www.inkscape.org/namespaces/inkscape"
   xmlns:sodipodi="http://sodipodi.sourceforge.net/DTD/sodipodi-0.dtd"
   xmlns="http://www.w3.org/2000/svg"
   xmlns:svg="http://www.w3.org/2000/svg">
  <sodipodi:namedview
     id="namedview1"
     pagecolor="#ffffff"
     bordercolor="#000000"
     borderopacity="0.25"
     inkscape:showpageshadow="2"
     inkscape:pageopacity="0.0"
     inkscape:pagecheckerboard="0"
     inkscape:deskcolor="#d1d1d1"
     inkscape:document-units="mm"
     showguides="true"
     inkscape:zoom="1.0557596"
     inkscape:cx="332.46203"
     inkscape:cy="302.15211"
     inkscape:window-width="1920"
     inkscape:window-height="1043"
     inkscape:window-x="0"
     inkscape:window-y="0"
     inkscape:window-maximized="1"
     inkscape:current-layer="layer1" />
  <defs
     id="defs1" />
  <g
     inkscape:label="Layer 1"
     inkscape:groupmode="layer"
     id="layer1"
     transform="translate(-37.142722,-40.332459)">
    <path
       id="path1-9-7-7"
       style="fill:#ffffff;fill-opacity:1;stroke-width:3.61082"
       d="m 112.94414,64.671089 c -6.06264,-1.7272 -12.86094,-1.46487 -19.647262,0.369087 -6.786307,1.83395 -14.304001,6.323247 -19.658728,10.979524 -5.354727,4.65628 -9.837444,10.863204 -11.767824,16.263621 -1.93038,5.400417 -2.02097,9.427319 -0.47851,14.289129 0,0 0.85837,-7.726372 4.218217,-13.101329 3.35984,-5.374947 10.326744,-13.461001 17.520731,-17.552141 7.236327,-4.115197 16.007281,-7.552784 24.226676,-6.144444 8.2194,1.408327 13.844,3.417117 20.80416,13.876921 l 5.73258,-0.82098 C 125.90199,69.620046 119.00678,66.398266 112.94414,64.671089 Z M 79.857697,83.319157 c 0,0 10.338964,6.186077 12.689991,10.150624 2.02218,3.410047 4.429097,8.236329 0.9883,11.709009 -3.686247,3.72039 -10.894324,4.63808 -16.698801,5.28124 -3.944977,0.43713 -8.961164,-0.62646 -11.864074,-1.0172 7.793567,5.43333 19.749101,5.5328 29.349565,2.0644 11.078452,-3.68404 24.774852,-14.082792 27.635142,-15.667159 2.06188,-1.14212 12.54977,-6.863187 17.43391,-3.51585 4.9685,3.40514 4.0247,11.386449 2.97728,17.771679 -1.04741,6.38521 -5.21996,13.91283 -11.44547,18.28421 -13.71152,7.68564 -31.114815,4.76352 -46.160916,3.40788 2.561417,3.13395 7.598294,8.75652 11.823001,12.7072 3.1384,2.93482 8.301745,8.12603 10.001955,8.12666 1.70022,6e-4 4.86915,-3.01686 6.9109,-4.81855 2.2604,-2.10232 4.2094,-4.70311 5.83651,-7.19611 -7.04401,2.56102 -8.07169,4.89333 -13.4088,3.99936 -2.96819,-0.49715 -6.590075,-6.16128 -6.590075,-6.16128 5.790595,1.76556 25.608465,1.21182 35.685095,-5.32758 6.82343,-4.42817 11.24985,-12.8867 13.06992,-20.55615 1.82006,-7.66944 2.40909,-16.799449 -2.30878,-22.839226 -2.46832,-3.15993 -6.30952,-4.082347 -11.33417,-4.107147 -5.02464,-0.0248 -12.72313,3.342177 -17.05676,5.990764 -5.7562,3.51802 -12.89878,8.208567 -17.26609,10.558089 0,0 2.5363,-3.312252 -2.318795,-10.355039 -3.641347,-5.282117 -9.037974,-7.061654 -12.595681,-7.737534 -1.71515,-0.32583 -3.67697,-0.46164 -5.353157,-0.75229 z m -7.767367,9.550454 c -4.343037,-0.077 -5.706447,5.979197 -1.1646,6.845967 3.98791,1.139262 6.734037,-4.335807 3.2143,-6.248977 -0.61793,-0.32868 -1.30724,-0.6361 -2.0497,-0.59699 z m 59.13802,2.5568 c 0,0 1.02797,1.559507 1.71892,4.716039 0.58039,2.6515 0.29949,6.92811 0.0475,9.00284 -0.66113,5.441 -5.58377,16.70477 -6.21462,17.50539 3.65713,-2.40543 9.54246,-10.69556 11.14815,-16.51795 1.02605,-3.72052 0.63892,-9.24759 -0.0254,-11.743702 -0.66379,-2.496107 -1.28631,-3.386257 -1.28631,-3.386257 z"
       sodipodi:nodetypes="szzcczazccscssaccsazscazscscazasscssccccccsscszcc" />
  </g>
</svg>
